<svg width="169" height="40" viewBox="0 0 169 40" fill="none" xmlns="http://www.w3.org/2000/svg">
<path d="M61.7269 16.768C62.1589 16.064 62.7189 15.512 63.4069 15.112C64.1109 14.712 64.9109 14.512 65.8069 14.512V18.04H64.9189C63.8629 18.04 63.0629 18.288 62.5189 18.784C61.9909 19.28 61.7269 20.144 61.7269 21.376V28H58.3669V14.704H61.7269V16.768ZM71.9821 17.464V23.896C71.9821 24.344 72.0861 24.672 72.2941 24.88C72.5181 25.072 72.8861 25.168 73.3981 25.168H74.9581V28H72.8461C70.0141 28 68.5981 26.624 68.5981 23.872V17.464H67.0141V14.704H68.5981V11.416H71.9821V14.704H74.9581V17.464H71.9821ZM80.7348 16.648C81.1668 16.008 81.7588 15.488 82.5108 15.088C83.2788 14.688 84.1508 14.488 85.1268 14.488C86.2628 14.488 87.2868 14.768 88.1988 15.328C89.1268 15.888 89.8548 16.688 90.3828 17.728C90.9268 18.752 91.1988 19.944 91.1988 21.304C91.1988 22.664 90.9268 23.872 90.3828 24.928C89.8548 25.968 89.1268 26.776 88.1988 27.352C87.2868 27.928 86.2628 28.216 85.1268 28.216C84.1348 28.216 83.2628 28.024 82.5108 27.64C81.7748 27.24 81.1828 26.728 80.7348 26.104V28H77.3748V10.24H80.7348V16.648ZM87.7668 21.304C87.7668 20.504 87.5988 19.816 87.2628 19.24C86.9428 18.648 86.5108 18.2 85.9668 17.896C85.4388 17.592 84.8628 17.44 84.2388 17.44C83.6308 17.44 83.0548 17.6 82.5108 17.92C81.9828 18.224 81.5508 18.672 81.2148 19.264C80.8948 19.856 80.7348 20.552 80.7348 21.352C80.7348 22.152 80.8948 22.848 81.2148 23.44C81.5508 24.032 81.9828 24.488 82.5108 24.808C83.0548 25.112 83.6308 25.264 84.2388 25.264C84.8628 25.264 85.4388 25.104 85.9668 24.784C86.5108 24.464 86.9428 24.008 87.2628 23.416C87.5988 22.824 87.7668 22.12 87.7668 21.304ZM104.214 21.352C104.214 19.976 104.494 18.776 105.054 17.752C105.614 16.712 106.39 15.912 107.382 15.352C108.374 14.776 109.51 14.488 110.79 14.488C112.438 14.488 113.798 14.904 114.87 15.736C115.958 16.552 116.686 17.704 117.054 19.192H113.43C113.238 18.616 112.91 18.168 112.446 17.848C111.998 17.512 111.438 17.344 110.766 17.344C109.806 17.344 109.046 17.696 108.486 18.4C107.926 19.088 107.646 20.072 107.646 21.352C107.646 22.616 107.926 23.6 108.486 24.304C109.046 24.992 109.806 25.336 110.766 25.336C112.126 25.336 113.014 24.728 113.43 23.512H117.054C116.686 24.952 115.958 26.096 114.87 26.944C113.782 27.792 112.422 28.216 110.79 28.216C109.51 28.216 108.374 27.936 107.382 27.376C106.39 26.8 105.614 26 105.054 24.976C104.494 23.936 104.214 22.728 104.214 21.352ZM127.003 14.512C128.011 14.512 128.907 14.736 129.691 15.184C130.475 15.616 131.083 16.264 131.515 17.128C131.963 17.976 132.187 19 132.187 20.2V28H128.827V20.656C128.827 19.6 128.563 18.792 128.035 18.232C127.507 17.656 126.787 17.368 125.875 17.368C124.947 17.368 124.211 17.656 123.667 18.232C123.139 18.792 122.875 19.6 122.875 20.656V28H119.515V10.24H122.875V16.36C123.307 15.784 123.883 15.336 124.603 15.016C125.323 14.68 126.123 14.512 127.003 14.512ZM134.519 21.304C134.519 19.96 134.783 18.768 135.311 17.728C135.855 16.688 136.583 15.888 137.495 15.328C138.423 14.768 139.455 14.488 140.591 14.488C141.583 14.488 142.447 14.688 143.183 15.088C143.935 15.488 144.535 15.992 144.983 16.6V14.704H148.367V28H144.983V26.056C144.551 26.68 143.951 27.2 143.183 27.616C142.431 28.016 141.559 28.216 140.567 28.216C139.447 28.216 138.423 27.928 137.495 27.352C136.583 26.776 135.855 25.968 135.311 24.928C134.783 23.872 134.519 22.664 134.519 21.304ZM144.983 21.352C144.983 20.536 144.823 19.84 144.503 19.264C144.183 18.672 143.751 18.224 143.207 17.92C142.663 17.6 142.079 17.44 141.455 17.44C140.831 17.44 140.255 17.592 139.727 17.896C139.199 18.2 138.767 18.648 138.431 19.24C138.111 19.816 137.951 20.504 137.951 21.304C137.951 22.104 138.111 22.808 138.431 23.416C138.767 24.008 139.199 24.464 139.727 24.784C140.271 25.104 140.847 25.264 141.455 25.264C142.079 25.264 142.663 25.112 143.207 24.808C143.751 24.488 144.183 24.04 144.503 23.464C144.823 22.872 144.983 22.168 144.983 21.352ZM155.008 16.768C155.44 16.064 156 15.512 156.688 15.112C157.392 14.712 158.192 14.512 159.088 14.512V18.04H158.2C157.144 18.04 156.344 18.288 155.8 18.784C155.272 19.28 155.008 20.144 155.008 21.376V28H151.648V14.704H155.008V16.768ZM165.263 17.464V23.896C165.263 24.344 165.367 24.672 165.575 24.88C165.799 25.072 166.167 25.168 166.679 25.168H168.239V28H166.127C163.295 28 161.879 26.624 161.879 23.872V17.464H160.295V14.704H161.879V11.416H165.263V14.704H168.239V17.464H165.263Z" fill="white"/>
<path d="M34.1422 5.85781C30.3647 2.08031 25.3422 0 20 0C14.6578 0 9.63531 2.08031 5.85781 5.85781C2.08031 9.63531 0 14.6578 0 20C0 25.3422 2.08039 30.3646 5.85781 34.1422C9.63523 37.9198 14.6578 40 20 40C25.3422 40 30.3647 37.9197 34.1422 34.1422C37.9197 30.3647 40 25.3422 40 20C40 14.6578 37.9196 9.63539 34.1422 5.85781Z" fill="white"/>
<g filter="url(#filter0_f_35212_417)">
<rect x="10.1429" y="22.1429" width="20" height="4" fill="#FFCECB"/>
</g>
<g filter="url(#filter1_f_35212_417)">
<rect x="10.1429" y="12.1429" width="20" height="4" fill="#FFCECB"/>
</g>
<rect x="11.1429" y="13.1429" width="18" height="2" fill="#ED4136"/>
<rect x="11.1429" y="23.1429" width="18" height="2" fill="#ED4136"/>
<defs>
<filter id="filter0_f_35212_417" x="6.14285" y="18.1429" width="28" height="12" filterUnits="userSpaceOnUse" color-interpolation-filters="sRGB">
<feFlood flood-opacity="0" result="BackgroundImageFix"/>
<feBlend mode="normal" in="SourceGraphic" in2="BackgroundImageFix" result="shape"/>
<feGaussianBlur stdDeviation="2" result="effect1_foregroundBlur_35212_417"/>
</filter>
<filter id="filter1_f_35212_417" x="6.14285" y="8.14286" width="28" height="12" filterUnits="userSpaceOnUse" color-interpolation-filters="sRGB">
<feFlood flood-opacity="0" result="BackgroundImageFix"/>
<feBlend mode="normal" in="SourceGraphic" in2="BackgroundImageFix" result="shape"/>
<feGaussianBlur stdDeviation="2" result="effect1_foregroundBlur_35212_417"/>
</filter>
</defs>
</svg>
